<?xml version="1.0" encoding="utf-8"?>
<!-- Generator: Adobe Illustrator 20.1.0, SVG Export Plug-In . SVG Version: 6.00 Build 0)  -->
<svg version="1.1" xmlns="http://www.w3.org/2000/svg" xmlns:xlink="http://www.w3.org/1999/xlink" x="0px" y="0px"
	 viewBox="0 0 128 128" style="enable-background:new 0 0 128 128;" xml:space="preserve">
<style type="text/css">
	.st0{fill:#FFFFFF;}
	.st1{fill:#5B4282;}
</style>
<g id="Layer_3">
	<rect x="21" y="16.2" class="st0" width="84.5" height="74.4"/>
</g>
<g id="Layer_2">
	<path class="st1" d="M74,56.8c-2-0.7-4.8-0.8-8.6-0.8H52v20h14.4c2.5,0,4.3-0.2,5.3-0.4c1.8-0.3,3.3-0.9,4.5-1.7
		c1.2-0.7,2.2-1.9,3-3.3c0.8-1.4,1.2-3.1,1.2-5c0-2.2-0.6-4-1.7-5.6C77.5,58.4,75.9,57.4,74,56.8z M71.9,48.1c2-0.6,3.5-1.6,4.5-3
		c1-1.4,1.5-3.1,1.5-5.2c0-1.9-0.5-3.7-1.4-5.2c-0.9-1.5-2.3-2.5-4-3c-1.7-0.5-4.7-0.8-8.9-0.8H52v18h12.5
		C67.9,49,70.4,48.6,71.9,48.1z M117,16.1C117,8.3,110.7,2,102.9,2H25.1C17.3,2,11,8.3,11,16.1v77.7c0,7.8,6.3,14.1,14.1,14.1h77.7
		c7.8,0,14.1-6.3,14.1-14.1V16.1z M86.6,73.3c-1.2,2.4-2.6,4.2-4.3,5.5c-1.7,1.3-3.8,2.4-6.4,3.1c-2.6,0.7-5.7,1.2-9.4,1.2H44V24
		h22.1c4.5,0,8.1,0.6,10.8,1.8c2.7,1.2,4.8,3,6.4,5.5c1.5,2.5,2.3,5,2.3,7.7c0,2.5-0.7,4.9-2,7.1c-1.4,2.2-3.4,4-6.2,5.4
		c3.5,1,6.3,2.8,8.2,5.3c1.9,2.5,2.9,5.5,2.9,8.9C88.3,68.4,87.7,70.9,86.6,73.3z"/>
</g>
<g id="Layer_1">
	<path class="st0" d="M12.4,117.8H14c0.8,0,1.3-0.1,1.7-0.4c0.3-0.2,0.5-0.6,0.5-1.2c0-0.5-0.2-0.9-0.6-1.1s-1-0.3-1.8-0.3h-1.5
		C12.4,114.8,12.4,117.8,12.4,117.8z M12.4,120.1v3.5h1.8c0.8,0,1.4-0.1,1.7-0.4s0.6-0.8,0.6-1.4c0-1.1-0.8-1.7-2.4-1.7
		C14.1,120.1,12.4,120.1,12.4,120.1z M24.5,119.2c0,1.5,0.3,2.6,0.9,3.4c0.6,0.8,1.4,1.1,2.5,1.1c2.3,0,3.4-1.5,3.4-4.5
		c0-3-1.1-4.5-3.4-4.5c-1.1,0-2,0.4-2.6,1.1S24.5,117.7,24.5,119.2z M39.4,119.2c0,1.5,0.3,2.6,0.9,3.4c0.6,0.8,1.4,1.1,2.5,1.1
		c2.3,0,3.4-1.5,3.4-4.5c0-3-1.1-4.5-3.4-4.5c-1.1,0-2,0.4-2.6,1.1S39.4,117.7,39.4,119.2z M86.8,118.5h0.9c0.9,0,1.6-0.1,2-0.4
		s0.6-0.8,0.6-1.4c0-0.6-0.2-1.1-0.7-1.4c-0.4-0.3-1.1-0.4-2-0.4h-0.9C86.8,114.8,86.8,118.5,86.8,118.5z M102.8,120.3
		c-0.9-2.9-1.4-4.5-1.5-4.9s-0.2-0.7-0.2-0.9c-0.2,0.8-0.8,2.7-1.7,5.8C99.4,120.3,102.8,120.3,102.8,120.3z M9.5,112.5h4.2
		c1.9,0,3.3,0.3,4.1,0.8c0.9,0.5,1.3,1.4,1.3,2.6c0,0.8-0.2,1.5-0.6,2s-0.9,0.8-1.5,0.9v0.1c0.8,0.2,1.5,0.5,1.8,1.1
		s0.6,1.2,0.6,2.1c0,1.2-0.4,2.2-1.3,2.9c-0.9,0.7-2.1,1-3.6,1h-5C9.5,125.9,9.5,112.5,9.5,112.5z M34.3,119.2
		c0,2.2-0.5,3.9-1.6,5.1s-2.7,1.8-4.7,1.8s-3.6-0.6-4.7-1.8c-1.1-1.2-1.6-2.9-1.6-5.1s0.5-3.9,1.7-5.1s2.7-1.8,4.7-1.8
		s3.6,0.6,4.7,1.8C33.7,115.3,34.3,117,34.3,119.2z M49.2,119.2c0,2.2-0.5,3.9-1.6,5.1s-2.7,1.8-4.7,1.8s-3.6-0.6-4.7-1.8
		c-1.1-1.2-1.6-2.9-1.6-5.1s0.5-3.9,1.7-5.1s2.7-1.8,4.7-1.8s3.6,0.6,4.7,1.8C48.6,115.3,49.2,117,49.2,119.2z M57.1,125.9h-2.8v-11
		h-3.6v-2.4h10.1v2.4h-3.6V125.9z M70.7,122.2c0,1.2-0.4,2.2-1.3,2.9s-2.1,1-3.6,1c-1.4,0-2.7-0.3-3.8-0.8v-2.6
		c0.9,0.4,1.7,0.7,2.3,0.9c0.6,0.2,1.2,0.2,1.7,0.2c0.6,0,1.1-0.1,1.4-0.4c0.3-0.2,0.5-0.6,0.5-1.1c0-0.3-0.1-0.5-0.2-0.7
		c-0.1-0.2-0.4-0.4-0.6-0.6s-0.9-0.5-1.7-0.9c-0.8-0.4-1.4-0.8-1.8-1.1c-0.4-0.4-0.7-0.8-1-1.2c-0.2-0.5-0.4-1-0.4-1.6
		c0-1.2,0.4-2.1,1.2-2.8c0.8-0.7,1.9-1,3.3-1c0.7,0,1.4,0.1,2,0.2s1.3,0.4,2,0.7l-0.9,2.2c-0.7-0.3-1.3-0.5-1.8-0.6
		c-0.5-0.1-0.9-0.2-1.4-0.2c-0.5,0-0.9,0.1-1.2,0.4s-0.4,0.6-0.4,1c0,0.2,0.1,0.5,0.2,0.7c0.1,0.2,0.3,0.4,0.6,0.5s0.9,0.5,1.8,0.9
		c1.2,0.6,2.1,1.2,2.6,1.8S70.7,121.3,70.7,122.2z M78.3,125.9h-2.8v-11h-3.6v-2.4h10.1v2.4h-3.6C78.3,114.9,78.3,125.9,78.3,125.9z
		 M86.8,120.8v5.1h-2.8v-13.4h3.9c1.8,0,3.2,0.3,4,1c0.9,0.7,1.3,1.7,1.3,3c0,0.8-0.2,1.5-0.6,2.1s-1,1.1-1.8,1.4
		c2,3,3.3,4.9,3.9,5.8h-3.1l-3.2-5.1L86.8,120.8L86.8,120.8z M104.5,125.9l-1-3.2h-4.9l-1,3.2h-3.1l4.7-13.4h3.5l4.7,13.4H104.5z
		 M118.5,116.7c0,1.4-0.4,2.5-1.3,3.3c-0.9,0.8-2.2,1.1-3.8,1.1h-1.2v4.8h-2.8v-13.4h4.3c1.6,0,2.9,0.3,3.7,1
		C118,114.3,118.5,115.3,118.5,116.7z M112.1,118.8h0.9c0.9,0,1.5-0.2,2-0.5s0.6-0.8,0.6-1.5c0-0.7-0.2-1.2-0.5-1.5
		c-0.4-0.3-0.9-0.5-1.7-0.5h-1.3L112.1,118.8L112.1,118.8z"/>
</g>
</svg>
