<?xml version="1.0" encoding="utf-8"?>
<!-- Generator: Adobe Illustrator 20.1.0, SVG Export Plug-In . SVG Version: 6.00 Build 0)  -->
<svg version="1.1" id="Layer_1" xmlns="http://www.w3.org/2000/svg" xmlns:xlink="http://www.w3.org/1999/xlink" x="0px" y="0px"
	 viewBox="0 0 128 128" style="enable-background:new 0 0 128 128;" xml:space="preserve">
<style type="text/css">
	.st0{fill:#FFFFFF;}
	.st1{fill:#1572B6;}
	.st2{fill:#33A9DC;}
	.st3{fill:#EBEBEB;}
</style>
<path class="st0" d="M89.2,5.9h-7.4l7.7,8.3v4H73.7v-4.6h7.7l-7.7-8.3v-4h15.5C89.2,1.2,89.2,5.9,89.2,5.9z M70.6,5.9h-7.4l7.7,8.3
	v4H55.1v-4.6h7.7l-7.7-8.3v-4h15.5V5.9z M52.1,6h-8v7.3h8v4.8H38.5V1.2h13.6C52.1,1.2,52.1,6,52.1,6z"/>
<path class="st1" d="M27.6,116.7l-8.1-90.8h89l-8.1,90.8l-36.4,10.1C63.9,126.8,27.6,116.7,27.6,116.7z"/>
<path class="st2" d="M64,119.1l29.4-8.2l6.9-77.6H64C64,33.3,64,119.1,64,119.1z"/>
<path class="st0" d="M64,66.2h14.7l1-11.4H64V43.7h27.9l-0.3,3l-2.7,30.7H64V66.2z"/>
<path class="st3" d="M64.1,95.1L64.1,95.1l-12.5-3.3l-0.8-8.9H39.6l1.6,17.5l22.8,6.3l0.1,0L64.1,95.1L64.1,95.1z"/>
<path class="st0" d="M77.8,76.9l-1.3,14.9L64,95.2v11.6l22.8-6.3l0.2-1.9L89,76.9L77.8,76.9L77.8,76.9z"/>
<path class="st3" d="M64,43.7v11.1H37.1l-0.2-2.5l-0.5-5.6l-0.3-3C36.1,43.7,64,43.7,64,43.7z M64,66.2v11.1H51.8l-0.2-2.5L51,69.2
	l-0.3-3H64z"/>
</svg>
